<?xml version="1.0"?><svg width="480" height="480" xmlns="http://www.w3.org/2000/svg" viewbox="0 0 1024 1024">
 <title>Africa</title>
 <g>
  <title>Layer 1</title>
  <path fill="#bcaaa4" fill-rule="evenodd" stroke="#795548" stroke-width="11" d="m246.867584,27.186193l0,-0.091269l0.407623,0l0.407684,0l0.489182,1.597143q0.529984,1.597132 0.73381,2.053459l0.203842,0.456326l1.100677,-0.821384q1.141479,-0.775759 1.549164,-0.775759l0.407654,0l0.081512,0.136909l0.122314,0.091267l0.203842,0.456314l0.203812,0.456327l0,0.684504l0,0.684479l-0.122299,0.091267l-0.081512,0.136883l-0.081573,0.136909q-0.122269,0.091255 -0.937592,1.003922q-0.815323,0.91264 -0.815323,2.737946q0,1.825298 0.407684,3.650604q0.407639,1.825294 -1.630676,3.878754l-2.03833,2.053459l-0.122299,0.091282l-0.081573,0.136883l-0.081512,0.136906l-0.122314,0.09127l-0.122269,0.091255l-0.081528,0.136906l-0.081589,0.136898l-0.122238,0.091251l0,0.456345l0,0.45631l0.122238,0.09127l0.081589,0.136883l0.081528,0.136909l0.122269,0.091263l0.122314,0.09127l0.081512,0.136898l1.223007,0q1.223007,0 1.834503,-0.319431q0.611496,-0.365063 1.630661,1.825294q1.019165,2.144737 2.853683,3.057377q1.834488,0.912655 6.114975,1.36898q4.280457,0.456329 6.644928,1.232086q2.3237,0.821373 3.668976,3.787487q1.304565,2.966114 4.973511,3.78751q3.669006,0.775761 6.318848,2.829189q2.649811,2.05349 4.484344,2.281662q1.834442,0.228157 2.242126,0.228157l0.407684,0l0.081573,-0.136925l0.122223,-0.091232l0.122345,-0.091278l0.081543,-0.136894l0.081512,-0.136902l0.122253,-0.091255l0.122314,-0.09127l0.081543,-0.136902l0.896881,-1.049553q0.937622,-1.003906 0.937622,-4.426346q0,-3.42244 3.383606,-6.251656q3.342865,-2.874859 6.196533,-2.41853q2.853638,0.456352 4.688171,2.053455q1.834442,1.597157 5.584991,2.190357q3.791321,0.547604 4.484314,1.551517q0.733795,1.049549 7.664124,1.962204q6.930298,0.912651 9.172455,1.59713q2.242157,0.684479 4.891968,-0.912655q2.649841,-1.59713 3.261322,-1.734024l0.611542,-0.091259l0.489197,1.597134q0.529968,1.597153 0.733765,2.281635l0.203857,0.684494l0.122284,0.456306l0.081573,0.456329l0.407654,0l0.407654,0l0.081512,-0.456329l0.122314,-0.456306l1.100708,-2.190372q1.141449,-2.144737 1.222992,-2.281658q0.122284,-0.091232 0.244598,-0.18251l0.081482,-0.136871l0.081573,-0.136921l0.122284,-0.091259l0.529968,1.003914q0.489227,1.049549 5.788879,1.049549q5.299622,0 6.848755,2.41853q1.508362,2.372864 1.712219,6.936134q0.203796,4.56324 0,5.932228l-0.203857,1.368973l-0.122284,1.140831l-0.081543,1.140808l-0.407654,-0.091278l-0.407715,-0.136902l-0.407623,-0.228172l-0.407684,-0.228127l-0.081512,-0.136925l-0.122314,-0.091248l-0.122253,-0.091286l-0.081573,-0.136871l-0.081512,-0.136894l-0.122345,-0.091286l-0.122284,-0.091248l-0.081512,-0.136894l-0.081543,-0.136925l-0.122284,-0.091255l-0.122314,-0.091255l-0.081543,-0.136894l-0.407654,-0.22818q-0.407715,-0.228172 -1.304535,-1.003906q-0.937622,-0.821404 -1.222992,-2.646706q-0.32608,-1.825279 -1.141449,-2.190331l-0.815369,-0.319458l-0.081482,-0.136894l-0.122284,-0.091248l-0.122375,-0.091263l-0.081482,-0.136894l-0.081573,-0.136894l-0.122253,-0.091286l-0.122314,-0.091248l-0.081512,-0.136902l-0.081604,-0.136894l-0.122284,-0.091278l-0.122253,-0.091255l-0.081512,-0.136894l-0.081573,-0.136902l-0.122284,-0.091278l-0.203857,-0.456322l-0.203857,-0.456329l-0.122284,-0.091255l-0.081512,-0.136894l-0.081543,-0.136925l-0.122284,-0.091248l-0.122314,0.091248l-0.081543,0.136925l-0.081543,0.136894l-0.122284,0.091255l0,0.684494l0,0.684486l0.203827,0.456322l0.203857,0.456337l0.122284,0.091248l0.081543,0.136894l0.081512,0.136894l0.122284,0.091286l0.122314,0.091255l0.081543,0.136894l0.081573,0.136902l0.122284,0.091278l2.853638,4.33506q2.853668,4.335121 3.546692,7.529388q0.733795,3.19426 2.03833,3.878769q1.345276,0.684471 5.421967,7.073021q4.07663,6.38855 4.484253,9.354668q0.407715,2.966141 3.669037,5.93222q3.261322,2.966118 4.280487,5.704102q1.019165,2.737938 1.426819,7.757507q0.407715,5.019577 1.100739,6.616714c1.494751,1.521072 2.989532,3.04216 4.484283,4.563232q3.79129,2.966141 5.136627,8.076965q1.304504,5.156464 5.177338,8.578934q3.872772,3.422424 5.82959,4.65451q1.916077,1.27771 5.870361,5.019562q3.995178,3.787491 5.625824,4.837051q1.630615,1.003922 1.549133,3.513687q-0.122284,2.509811 -0.937653,3.194305q-0.815338,0.684479 -0.937622,2.053452l-0.081573,1.368942l2.03833,0.365082q2.03833,0.319443 3.261322,1.688416q1.223022,1.368973 4.688202,1.368973q3.465149,0 3.872833,-0.456314q0.407562,-0.456329 3.261292,-0.912659q2.853638,-0.456329 3.261322,-1.232086q0.407715,-0.821411 0.815369,-0.821411q0.407654,0 0.407654,-0.456284q0,-0.45636 2.649811,-0.228165q2.649811,0.228165 2.975952,-1.369003q0.28537,-1.597122 3.832062,-1.688385q3.587433,-0.136887 5.421967,-1.734055q1.834442,-1.597122 2.853668,-1.597122l1.019135,0l0.611481,0.22818l0.611542,0.228134l0.081543,0.136902l0.122253,0.091309l0.203857,2.053421q0.203796,2.053482 0.326019,2.053482l0.081573,0l0,2.73793l0,2.737961l-4.402771,12.320786q-4.361938,12.320786 -9.131653,21.812317q-4.810455,9.445938 -10.517792,15.606354q-5.707306,6.160385 -9.457794,9.491562q-3.791382,3.285507 -10.599365,12.777069q-6.848755,9.445969 -8.275604,10.221725q-1.426819,0.821381 -1.75293,3.559357q-0.285339,2.737885 -1.793762,5.110779q-1.549133,2.418549 -2.568329,2.281677q-1.019073,-0.091309 -1.345215,2.190338q-0.28537,2.281616 -0.28537,4.563232q0,2.281677 0.815338,5.475952q0.815247,3.194183 0.815247,7.529358q0,4.335083 1.100769,8.076965q1.141449,3.787415 2.690552,5.475891q1.508362,1.734039 1.508362,6.297241q0,4.563232 0,15.286926q0,10.723633 -2.731354,14.009186q-2.772095,3.331146 -10.436188,7.757507q-7.623352,4.471985 -10.76239,7.575012q-3.17981,3.057373 -4.402802,3.650574q-1.222961,0.547607 -1.426819,1.825317q-0.203827,1.232086 -1.426849,1.095215q-1.222992,-0.091309 -1.141449,3.331116q0.122345,3.422485 0.937592,5.704041q0.815369,2.281647 1.223083,6.61676q0.407623,4.335083 -0.285431,7.89444q-0.733795,3.513672 -7.337952,6.844879q-6.644958,3.285522 -7.052582,3.970001q-0.407684,0.684479 -0.611542,5.704071q-0.203827,5.019592 -1.222931,6.616699q-1.019196,1.597168 -1.956879,4.106964q-0.89679,2.509766 -2.731354,3.513702q-1.834473,1.049561 -5.014282,5.93222q-3.138977,4.928284 -6.11496,8.48761q-2.935211,3.513733 -6.808014,6.708008q-3.872803,3.194244 -5.503479,4.106964q-1.630646,0.912598 -5.707336,1.597076q-4.076599,0.68454 -4.688141,1.368988q-0.61145,0.684479 -2.03833,0.228149q-1.426819,-0.456299 -5.911102,-0.228149q-4.484344,0.228149 -5.299713,0.912659q-0.815308,0.684509 -4.68811,0.912628q-3.872803,0.22818 -4.280518,0.456329l-0.407654,0.22818l-0.407654,0.228119q-0.407654,0.22818 -1.42688,0.365112l-1.019104,0.091248l-0.081543,-0.22818l-0.122284,-0.22818l-0.122284,-0.091217l-0.081573,-0.136902l-0.611481,-0.22818l-0.611511,-0.228149l-0.081543,-0.136902l-0.122314,-0.091278l-0.122253,-0.091248l-0.081512,-0.136871l-0.081543,-0.136932l-0.122345,-0.091248l-0.122223,-0.091278q-0.081573,-0.136902 -2.323792,-2.646698q-2.242126,-2.509796 -2.975922,-4.471924q-0.693054,-1.916595 0.407684,-2.144775q1.141449,-0.228119 1.630646,-1.140808l0.529999,-0.912689l0.122253,-0.091217l0.081512,-0.136902l-0.081512,-0.136871q-0.122253,-0.091309 -2.975952,-5.33902q-2.853638,-5.247772 -3.261322,-7.757568q-0.407654,-2.509766 -2.568298,-5.612762q-2.119873,-3.057404 -5.055084,-7.940033q-2.975922,-4.928345 -3.995087,-11.088745q-1.019135,-6.1604 -1.426819,-11.63623q-0.407684,-5.475952 -4.688171,-13.233459q-4.280457,-7.757568 -7.134125,-13.917908q-2.853653,-6.160431 -3.057495,-12.77713q-0.203842,-6.616699 0.203842,-7.529327q0.407639,-0.91272 1.630676,-6.38858q1.222977,-5.475922 4.280441,-9.354675q3.057495,-3.878754 3.261353,-7.073059q0.203796,-3.194336 -1.019165,-6.1604q-1.222992,-2.966095 -1.426819,-8.213837q-0.203857,-5.247742 -3.261322,-13.00528q-3.057526,-7.757507 -4.280502,-10.951782q-1.222961,-3.194244 -5.503464,-8.442017q-4.280502,-5.247772 -7.134171,-9.810974q-2.853668,-4.563248 -3.057465,-6.388565q-0.203857,-1.825287 0.326111,-2.190369q0.489197,-0.319412 0.978378,-2.007843q0.529984,-1.734039 0.937653,-4.700119q0.407684,-2.966156 0,-3.422424q-0.407669,-0.456329 0.611496,-3.422455q1.019135,-2.966125 1.222992,-6.616699q0.203842,-3.65062 -0.203857,-4.335129q-0.407623,-0.684479 0,-1.597107l0.4077,-0.912659l0,-0.456329l0,-0.456314l-0.122314,-0.091278l-0.081528,-0.136902l-0.407654,0q-0.407684,0 -1.426834,0.456314q-1.01918,0.456345 -2.853668,-1.825302q-1.834503,-2.281601 -2.242142,-2.053421q-0.407669,0.228149 -2.445999,0.684448q-2.0383,0.456329 -6.318817,0.684525q-4.280502,0.228119 -4.891968,-0.456375q-0.611465,-0.684448 -2.160645,-3.741837q-1.508362,-3.103027 -2.853668,-5.019577q-1.30452,-1.962234 -9.254013,-1.962234q-7.949478,0 -9.580139,1.140839q-1.630661,1.140808 -4.07663,1.825302q-2.445984,0.684464 -6.11499,2.737961q-3.668976,2.053436 -5.299667,2.509781q-1.630646,0.456329 -3.668976,-0.456345q-2.03833,-0.912598 -7.949463,-1.140808q-5.911148,-0.228119 -10.395462,1.140808q-4.484329,1.368988 -7.541824,1.597168q-3.057495,0.228165 -6.522629,-1.825317q-3.465179,-2.053467 -5.585052,-4.65451q-2.160614,-2.646683 -3.668961,-3.924408q-1.549133,-1.232071 -7.460297,-7.164307q-5.911133,-5.93222 -6.318825,-9.126511q-0.407631,-3.19426 -0.896835,-4.882675q-0.529976,-1.734009 -3.179794,-4.243805q-2.649849,-2.509781 -2.853668,-3.650589q-0.203835,-1.140808 -4.280479,-5.932251q-4.076668,-4.791412 -4.280495,-7.529358q-0.203835,-2.737976 0.203827,-3.422424q0.407677,-0.684494 0.815338,-2.053452q0.407677,-1.369003 -0.93763,-3.878799l-1.30452,-2.509766l0.081512,-0.684494l0.122299,-0.684494l0.122322,-0.091263l0.081528,-0.136887l0.081528,-0.136871l0.122299,-0.091293l0.203842,-0.456314l0.203819,-0.456329l0.122299,-0.091293l0.081535,-0.136887l0.081535,-0.136902l0.122292,-0.091248l0.203842,-0.456345q0.203835,-0.456314 0.815331,-1.597122q0.611481,-1.140823 2.649834,-8.213867q2.038315,-7.073044 2.038315,-11.408112q0,-4.335083 0.407661,-5.019592q0.407669,-0.684502 0.407669,-2.96611q0,-2.281639 -0.611496,-2.96611q-0.611504,-0.684479 -0.611504,-5.019569q0,-4.335098 1.508369,-5.475929q1.549126,-1.140778 3.587448,-5.93222q2.03833,-4.791397 4.280495,-6.160378q2.242165,-1.36898 4.688148,-6.479805q2.445999,-5.156471 4.076645,-5.612816q1.630676,-0.456306 3.995132,-4.700119q2.323715,-4.198219 5.299637,-4.563271q2.935196,-0.319427 5.177383,-1.460236q2.242172,-1.140831 5.585007,-4.654518q3.383621,-3.559341 3.995102,-7.438103q0.611526,-3.878769 1.712234,-5.612797q1.141434,-1.688412 2.0383,-4.106941q0.937637,-2.37289 6.767242,-5.658421q5.788849,-3.331173 9.254028,-8.122581l3.465134,-4.79142l0.081528,-0.136906l0.122314,-0.091267l0.122314,-0.091255l0.081497,-0.136909l0.081558,-0.136883l0.122299,-0.091267l0.122299,0.091267l0.081528,0.136883l0.081528,0.136909l0.122314,0.091255l1.75296,2.190365q1.712189,2.14473 5.992676,2.37289q4.280487,0.228165 5.911148,0.912655q1.630676,0.68449 5.503464,-1.825298q3.872833,-2.509796 5.09584,-2.737946q1.222992,-0.228165 2.853653,-1.597157q1.630676,-1.368971 10.395462,-2.053448q8.764832,-0.68449 9.17247,0.091244q0.407669,0.821398 4.07666,-0.18251q3.668976,-1.049562 3.872803,-0.456327q0.203873,0.547594 1.834534,0q1.630615,-0.593235 2.649796,-0.136896q1.019165,0.456314 3.465164,0q2.445999,-0.456339 4.280472,-1.140818q1.834534,-0.68449 1.834534,-0.821384z"/>
 </g>
</svg>